<?xml version="1.0" encoding="UTF-8"?>
<svg id="Calque_1" xmlns="http://www.w3.org/2000/svg" version="1.1" viewBox="0 0 160 160">
  <!-- Generator: Adobe Illustrator 29.5.1, SVG Export Plug-In . SVG Version: 2.1.0 Build 141)  -->
  <defs>
    <style>
      .st0, .st1 {
        fill: #fff;
      }

      .st1 {
        font-family: BodoniMT, 'Bodoni MT';
        font-size: 12px;
      }
    </style>
  </defs>
  <path class="st0" d="M67.17,70.47h8.38c1.52-5.25,3.04-10.51,4.55-15.76,2.58,7.96,5.17,15.92,7.75,23.88h7.33c-3.36-10.25-6.73-20.5-10.09-30.75h-9.36c-2.85,7.54-5.71,15.09-8.56,22.63Z"/>
  <path class="st0" d="M103.46,99.95h-8.75c2.28,6.71,4.56,13.42,6.84,20.13h8.83c-2.31-6.71-4.61-13.42-6.92-20.13Z"/>
  <path class="st0" d="M55.54,120.08h9.14c4.66-13.3,6.69-19.11,7.05-20.13h-8.94c-2.42,6.71-4.83,13.42-7.25,20.13Z"/>
  <path class="st0" d="M97.98,83.87s-16.8,7.28-30.12-2.28c-13.33-9.56-8.15-29.86-8.15-29.86,0,0,5.05-20.29,24.78-18.79,5.23.4,13.3,2.74,13.3,2.74l2.05-6.94s-32.71-14.1-47.15,16.63c0,0-10.66,24.29,7.8,41.02,18.46,16.74,39.25,4.22,39.25,4.22l-1.76-6.74Z"/>
  <text class="st1" transform="translate(55.54 134.49)"><tspan x="0" y="0">AC Creative</tspan></text>
</svg>